<svg width="16" height="20" viewBox="0 0 16 20" fill="none" xmlns="http://www.w3.org/2000/svg">
<path d="M3.10288 13.448C2.81488 13.448 2.55354 13.352 2.31888 13.16C2.08421 12.968 1.88154 12.7067 1.71088 12.376C1.40154 11.8 1.17221 11.0107 1.02288 10.008C0.916208 9.31467 0.836208 8.51467 0.782875 7.608L0.766875 6.76V5.896C0.756208 5.61867 0.750875 5.28267 0.750875 4.888C0.750875 4.248 0.777542 3.68267 0.830875 3.192C0.873542 2.68 0.980208 2.17333 1.15088 1.672C1.32154 1.23467 1.56688 0.925333 1.88688 0.743999C2.07888 0.658666 2.27088 0.615999 2.46288 0.615999C3.02821 0.615999 3.47621 0.839999 3.80688 1.288C4.16954 1.78933 4.40954 2.34933 4.52688 2.968C4.69754 3.71467 4.79354 4.42933 4.81488 5.112C4.85754 5.86933 4.87888 6.584 4.87888 7.256V8.168C4.87888 8.34933 4.85221 8.69067 4.79888 9.192C4.75621 9.58667 4.73488 9.92267 4.73488 10.2V10.264C4.67088 10.5627 4.63888 10.9147 4.63888 11.32C4.63888 11.6187 4.57488 11.928 4.44688 12.248C4.31888 12.568 4.13754 12.84 3.90288 13.064C3.66821 13.32 3.40154 13.448 3.10288 13.448ZM3.13488 12.568C3.34821 12.568 3.52954 12.3707 3.67888 11.976C3.80688 11.624 3.89754 11.1973 3.95088 10.696C4.01488 10.184 4.06821 9.608 4.11088 8.968C4.13221 8.69067 4.14288 8.33333 4.14288 7.896L4.12688 6.424C4.10554 5.848 4.04154 5.128 3.93488 4.264C3.84954 3.528 3.68954 2.87733 3.45488 2.312C3.34821 2.04533 3.21488 1.83733 3.05488 1.688C2.89488 1.53867 2.72421 1.464 2.54288 1.464C2.27621 1.464 2.07888 1.672 1.95088 2.088C1.79088 2.52533 1.68421 3.00533 1.63088 3.528C1.56688 4.09333 1.52954 4.632 1.51888 5.144L1.50288 5.672C1.49221 5.82133 1.48688 6.024 1.48688 6.28V6.344C1.48688 7.05867 1.56154 7.93867 1.71088 8.984C1.88154 10.4027 2.13221 11.4107 2.46288 12.008C2.67621 12.3813 2.90021 12.568 3.13488 12.568ZM7.92638 13.256C7.78771 13.256 7.66504 13.1973 7.55838 13.08C7.45171 12.9627 7.39838 12.8293 7.39838 12.68C7.39838 12.52 7.45704 12.376 7.57438 12.248C7.69171 12.12 7.83038 12.056 7.99038 12.056C8.13971 12.056 8.27304 12.12 8.39038 12.248C8.50771 12.376 8.56638 12.5147 8.56638 12.664C8.56638 12.8347 8.50238 12.9733 8.37438 13.08C8.25704 13.1973 8.10771 13.256 7.92638 13.256ZM15.2714 13.24C15.058 13.24 14.6207 12.1413 13.9594 9.944C13.2127 7.37333 12.5674 5.01067 12.0234 2.856V8.104C12.0234 8.552 12.066 9.31467 12.1514 10.392C12.226 11.5653 12.2634 12.3227 12.2634 12.664C12.2634 12.76 12.2047 12.8453 12.0874 12.92C11.97 12.984 11.8367 13.016 11.6874 13.016C11.4634 13.016 11.3514 12.9307 11.3514 12.76L11.3834 12.296C11.4047 11.9547 11.4154 11.7307 11.4154 11.624C11.4154 11.0587 11.3834 10.1627 11.3194 8.936C11.2554 7.688 11.2234 6.93067 11.2234 6.664V4.616C11.2234 4.28533 11.2394 3.79467 11.2714 3.144C11.314 2.57867 11.3354 2.088 11.3354 1.672V1.576C11.3354 1.04267 11.4527 0.775999 11.6874 0.775999C11.826 0.775999 12.002 1.01067 12.2154 1.48C12.5674 2.248 13.0154 3.624 13.5594 5.608C13.8687 6.76 14.2314 8.24267 14.6474 10.056C14.6367 10.0133 14.722 10.3813 14.9034 11.16L14.9194 11.24C14.9194 10.2053 14.93 9.27733 14.9514 8.456L14.9834 5.672V0.936C15.026 0.669333 15.1967 0.535999 15.4954 0.535999C15.7834 0.535999 15.9274 0.743999 15.9274 1.16V1.256C15.8634 1.384 15.8314 1.53867 15.8314 1.72C15.8314 2.37067 15.8154 3.352 15.7834 4.664C15.7514 5.98667 15.7354 6.97867 15.7354 7.64V12.52C15.7354 12.6907 15.6874 12.8507 15.5914 13C15.506 13.16 15.3994 13.24 15.2714 13.24ZM7.91016 18.3906L7.90625 16.4219H6.16406V16.6367H7.70312V18.293C7.61458 18.4049 7.51042 18.4987 7.39062 18.5742C7.27344 18.6471 7.14714 18.7057 7.01172 18.75C6.8763 18.7943 6.73698 18.8255 6.59375 18.8438C6.45052 18.862 6.3112 18.8698 6.17578 18.8672C5.97526 18.8646 5.79297 18.8307 5.62891 18.7656C5.46745 18.7005 5.32292 18.612 5.19531 18.5C5.0651 18.3906 4.95312 18.2617 4.85938 18.1133C4.76562 17.9622 4.6875 17.8021 4.625 17.6328C4.5625 17.4661 4.51562 17.293 4.48438 17.1133C4.45312 16.931 4.4362 16.7526 4.43359 16.5781V15.6406C4.4362 15.474 4.45312 15.3047 4.48438 15.1328C4.51562 14.9583 4.5612 14.7891 4.62109 14.625C4.68099 14.4635 4.75651 14.3112 4.84766 14.168C4.9388 14.0247 5.04688 13.8997 5.17188 13.793C5.29427 13.6862 5.43359 13.6016 5.58984 13.5391C5.7487 13.4766 5.92448 13.4453 6.11719 13.4453C6.33594 13.4453 6.53255 13.4805 6.70703 13.5508C6.88151 13.6211 7.03516 13.7188 7.16797 13.8438C7.29818 13.9688 7.40755 14.1172 7.49609 14.2891C7.58464 14.4609 7.65104 14.6484 7.69531 14.8516H7.90234C7.87109 14.6172 7.80599 14.4023 7.70703 14.207C7.60807 14.0091 7.48177 13.8372 7.32812 13.6914C7.17188 13.5482 6.99089 13.4362 6.78516 13.3555C6.58203 13.2747 6.35938 13.2344 6.11719 13.2344C5.90365 13.2344 5.70833 13.2682 5.53125 13.3359C5.35677 13.4036 5.20052 13.4961 5.0625 13.6133C4.92188 13.7305 4.79948 13.8672 4.69531 14.0234C4.59115 14.1797 4.50521 14.3464 4.4375 14.5234C4.36719 14.7031 4.3138 14.8893 4.27734 15.082C4.24349 15.2721 4.22526 15.4609 4.22266 15.6484V16.5781C4.22526 16.7734 4.24479 16.9701 4.28125 17.168C4.31771 17.3659 4.3724 17.5573 4.44531 17.7422C4.51562 17.9271 4.60417 18.1003 4.71094 18.2617C4.81771 18.4232 4.94271 18.5638 5.08594 18.6836C5.22917 18.8034 5.39062 18.8984 5.57031 18.9688C5.7526 19.0391 5.95443 19.0755 6.17578 19.0781C6.33464 19.0781 6.49479 19.0664 6.65625 19.043C6.81771 19.0195 6.97396 18.9805 7.125 18.9258C7.27604 18.8711 7.41797 18.8008 7.55078 18.7148C7.6862 18.6263 7.80599 18.5182 7.91016 18.3906ZM9.28125 19H10.7109C10.9323 18.9948 11.138 18.9583 11.3281 18.8906C11.5208 18.8229 11.6953 18.7305 11.8516 18.6133C12.0078 18.4987 12.1458 18.3633 12.2656 18.207C12.388 18.0482 12.4909 17.8776 12.5742 17.6953C12.6576 17.513 12.7214 17.3203 12.7656 17.1172C12.8125 16.9141 12.8359 16.7096 12.8359 16.5039V15.8086C12.8333 15.6029 12.8099 15.3984 12.7656 15.1953C12.7214 14.9922 12.6576 14.7995 12.5742 14.6172C12.4909 14.4349 12.388 14.2656 12.2656 14.1094C12.1458 13.9505 12.0078 13.8125 11.8516 13.6953C11.6953 13.5807 11.5208 13.4896 11.3281 13.4219C11.138 13.3542 10.9323 13.3177 10.7109 13.3125H9.28125V19ZM9.48438 13.5234H10.7109C10.8646 13.5286 11.0104 13.5508 11.1484 13.5898C11.2891 13.6263 11.418 13.6771 11.5352 13.7422C11.7253 13.8464 11.8906 13.9831 12.0312 14.1523C12.1719 14.319 12.2891 14.5013 12.3828 14.6992C12.4583 14.8685 12.5169 15.0469 12.5586 15.2344C12.6003 15.4193 12.6224 15.6068 12.625 15.7969V16.5039C12.6224 16.6914 12.6016 16.8776 12.5625 17.0625C12.5234 17.2448 12.4674 17.4193 12.3945 17.5859C12.319 17.7552 12.2266 17.9128 12.1172 18.0586C12.0078 18.2018 11.8828 18.3268 11.7422 18.4336C11.6016 18.5404 11.4453 18.625 11.2734 18.6875C11.1016 18.75 10.9141 18.7839 10.7109 18.7891H9.48438V13.5234Z" fill="#DBE2EF"/>
<path d="M3.69531 19.7812H13.3008V20.1719H3.69531V19.7812Z" fill="#DBE2EF"/>
</svg>
