<svg width="16" height="14" viewBox="0 0 16 14" fill="none" xmlns="http://www.w3.org/2000/svg">
<path d="M3.10288 13.448C2.81488 13.448 2.55354 13.352 2.31888 13.16C2.08421 12.968 1.88154 12.7067 1.71088 12.376C1.40154 11.8 1.17221 11.0107 1.02288 10.008C0.916208 9.31467 0.836208 8.51467 0.782875 7.608L0.766875 6.76V5.896C0.756208 5.61867 0.750875 5.28267 0.750875 4.888C0.750875 4.248 0.777542 3.68267 0.830875 3.192C0.873542 2.68 0.980208 2.17333 1.15088 1.672C1.32154 1.23467 1.56688 0.925333 1.88688 0.743999C2.07888 0.658666 2.27088 0.615999 2.46288 0.615999C3.02821 0.615999 3.47621 0.839999 3.80688 1.288C4.16954 1.78933 4.40954 2.34933 4.52688 2.968C4.69754 3.71467 4.79354 4.42933 4.81488 5.112C4.85754 5.86933 4.87888 6.584 4.87888 7.256V8.168C4.87888 8.34933 4.85221 8.69067 4.79888 9.192C4.75621 9.58667 4.73488 9.92267 4.73488 10.2V10.264C4.67088 10.5627 4.63888 10.9147 4.63888 11.32C4.63888 11.6187 4.57488 11.928 4.44688 12.248C4.31888 12.568 4.13754 12.84 3.90288 13.064C3.66821 13.32 3.40154 13.448 3.10288 13.448ZM3.13488 12.568C3.34821 12.568 3.52954 12.3707 3.67888 11.976C3.80688 11.624 3.89754 11.1973 3.95088 10.696C4.01488 10.184 4.06821 9.608 4.11088 8.968C4.13221 8.69067 4.14288 8.33333 4.14288 7.896L4.12688 6.424C4.10554 5.848 4.04154 5.128 3.93488 4.264C3.84954 3.528 3.68954 2.87733 3.45488 2.312C3.34821 2.04533 3.21488 1.83733 3.05488 1.688C2.89488 1.53867 2.72421 1.464 2.54288 1.464C2.27621 1.464 2.07888 1.672 1.95088 2.088C1.79088 2.52533 1.68421 3.00533 1.63088 3.528C1.56688 4.09333 1.52954 4.632 1.51888 5.144L1.50288 5.672C1.49221 5.82133 1.48688 6.024 1.48688 6.28V6.344C1.48688 7.05867 1.56154 7.93867 1.71088 8.984C1.88154 10.4027 2.13221 11.4107 2.46288 12.008C2.67621 12.3813 2.90021 12.568 3.13488 12.568ZM7.92638 13.256C7.78771 13.256 7.66504 13.1973 7.55838 13.08C7.45171 12.9627 7.39838 12.8293 7.39838 12.68C7.39838 12.52 7.45704 12.376 7.57438 12.248C7.69171 12.12 7.83038 12.056 7.99038 12.056C8.13971 12.056 8.27304 12.12 8.39038 12.248C8.50771 12.376 8.56638 12.5147 8.56638 12.664C8.56638 12.8347 8.50238 12.9733 8.37438 13.08C8.25704 13.1973 8.10771 13.256 7.92638 13.256ZM15.2714 13.24C15.058 13.24 14.6207 12.1413 13.9594 9.944C13.2127 7.37333 12.5674 5.01067 12.0234 2.856V8.104C12.0234 8.552 12.066 9.31467 12.1514 10.392C12.226 11.5653 12.2634 12.3227 12.2634 12.664C12.2634 12.76 12.2047 12.8453 12.0874 12.92C11.97 12.984 11.8367 13.016 11.6874 13.016C11.4634 13.016 11.3514 12.9307 11.3514 12.76L11.3834 12.296C11.4047 11.9547 11.4154 11.7307 11.4154 11.624C11.4154 11.0587 11.3834 10.1627 11.3194 8.936C11.2554 7.688 11.2234 6.93067 11.2234 6.664V4.616C11.2234 4.28533 11.2394 3.79467 11.2714 3.144C11.314 2.57867 11.3354 2.088 11.3354 1.672V1.576C11.3354 1.04267 11.4527 0.775999 11.6874 0.775999C11.826 0.775999 12.002 1.01067 12.2154 1.48C12.5674 2.248 13.0154 3.624 13.5594 5.608C13.8687 6.76 14.2314 8.24267 14.6474 10.056C14.6367 10.0133 14.722 10.3813 14.9034 11.16L14.9194 11.24C14.9194 10.2053 14.93 9.27733 14.9514 8.456L14.9834 5.672V0.936C15.026 0.669333 15.1967 0.535999 15.4954 0.535999C15.7834 0.535999 15.9274 0.743999 15.9274 1.16V1.256C15.8634 1.384 15.8314 1.53867 15.8314 1.72C15.8314 2.37067 15.8154 3.352 15.7834 4.664C15.7514 5.98667 15.7354 6.97867 15.7354 7.64V12.52C15.7354 12.6907 15.6874 12.8507 15.5914 13C15.506 13.16 15.3994 13.24 15.2714 13.24Z" fill="#DBE2EF"/>
</svg>
